<svg width="44" height="44" viewBox="0 0 92.604 89.958" xmlns="http://www.w3.org/2000/svg">
    <path style="display:inline;fill:tomato;stroke-width:1" d="M63.053 156.985c.092.13.19.257.283.387-1.933 1.493-3.802 3.105-5.368 4.986-.633.76-1.189 1.575-1.784 2.363-.56.929-1.176 1.827-1.677 2.787-1.176 2.252-2.055 4.63-2.446 7.112-1.952-.593-3.987-.895-6.051-.983-1.083-.046-2.168.042-3.252.062-.98.122-1.969.194-2.943.362-2.41.416-4.737 1.231-6.996 2.158-.066-.146-.127-.294-.193-.44l-.062.543c-.079.032-.16.061-.238.094l.082 1.254-.008.062.012.024.041.633c.07-.04.14-.078.21-.119.928 1.936 1.711 3.94 2.52 5.928.443 1.107.471 1.182.657 1.615-.468.056-.55.069-1.73.238-2.125.295-4.248.617-6.388.782 0-.08-.003-.163-.004-.243l-.576.288h-.02l-.033.024-1.143.568c.01.083.026.167.037.25l-.44.325c.16-.015.318-.037.477-.053.327 2.42.786 4.843 1.632 7.14.341.927.77 1.823 1.155 2.733.524.949.99 1.926 1.57 2.84 1.9 2.992 4.293 5.618 7.416 7.367.928.52 1.642.856 2.298 1.11-2.402 2.451-3.96 5.488-4.982 8.743-.325 1.034-.52 2.106-.782 3.157-.136.979-.32 1.951-.41 2.935-.223 2.436-.04 4.896.27 7.317-.157.025-.315.048-.472.074l.506.197c.01.085.017.17.028.255l1.238.247.057.025.029-.005.62.124c-.019-.077-.04-.154-.06-.23 2.11-.395 4.241-.639 6.37-.905 1.187-.141 1.27-.15 1.74-.218-.069.47-.081.548-.223 1.735-.265 2.128-.505 4.263-.9 6.372-.077-.021-.153-.038-.23-.058l.123.625-.004.024.02.054.247 1.237c.083.012.168.018.251.029l.201.51c.027-.159.049-.318.074-.477 2.422.31 4.88.493 7.317.271.985-.09 1.96-.27 2.94-.407 1.051-.26 2.119-.46 3.152-.785 3.382-1.062 6.538-2.69 9.035-5.253 2.047-2.1 2.455-3.088 3.552-5.287 1.078 2.163 1.496 3.153 3.527 5.237 2.498 2.564 5.654 4.196 9.035 5.258 1.034.324 2.102.52 3.153.78.979.137 1.95.322 2.935.412 2.437.222 4.899.035 7.321-.275.025.158.048.318.074.476l.201-.51c.084-.01.168-.017.251-.028l.247-1.237.02-.054-.004-.024.124-.625c-.077.02-.154.036-.23.057-.395-2.109-.64-4.243-.905-6.371-.142-1.187-.15-1.265-.218-1.735.47.068.548.076 1.735.218 2.128.266 4.262.51 6.371.904-.02.076-.038.154-.057.23l.625-.123.024.004.054-.02 1.237-.247c.011-.084.018-.17.029-.255l.51-.201c-.16-.027-.318-.049-.477-.074.31-2.42.497-4.882.275-7.317-.09-.984-.275-1.956-.411-2.935-.261-1.052-.456-2.123-.781-3.157-1.028-3.273-2.599-6.326-5.023-8.784.786-.266 1.618-.637 2.77-1.283 3.123-1.75 5.515-4.375 7.416-7.366.581-.915 1.046-1.897 1.57-2.845.385-.91.814-1.802 1.155-2.73.845-2.295 1.31-4.72 1.636-7.14.16.017.318.039.477.054l-.44-.325c.011-.085.026-.17.037-.255l-1.138-.563-.041-.028h-.025l-.572-.284c0 .08-.004.159-.004.238-2.14-.164-4.262-.482-6.388-.777-1.18-.17-1.26-.182-1.73-.238.187-.435.214-.511.658-1.62.807-1.987 1.592-3.988 2.52-5.923l.21.12.04-.634.012-.024-.008-.062.082-1.258c-.077-.032-.156-.062-.234-.095l-.061-.542c-.067.146-.128.293-.194.44-2.26-.927-4.588-1.738-7-2.154-.974-.168-1.963-.244-2.943-.366-1.084-.02-2.17-.108-3.252-.062-1.99.085-3.953.374-5.841.925-.415-2.365-1.264-4.633-2.388-6.787-.502-.96-1.118-1.858-1.677-2.787-.596-.788-1.156-1.604-1.789-2.363-1.565-1.88-3.433-3.49-5.364-4.982l.284-.39-.502.217-.201-.156-1.052.703-.05.02c-.005.008-.011.014-.016.02l-.526.354c.068.041.135.084.205.124-1.212 1.77-2.55 3.45-3.868 5.142-.74.94-.788 1.003-1.073 1.385a53.019 53.019 0 0 0-1.073-1.385c-1.317-1.693-2.655-3.372-3.868-5.142.07-.04.137-.083.206-.124l-.526-.349-.017-.025-.053-.024-1.053-.7c-.066.052-.13.106-.197.157l-.501-.218zm1.335 1.821c.982 1.306 1.988 2.59 2.989 3.88.97 1.251.512.645 1.381 1.822l1.204.518c-.074.1-.057.073-.168.222l.341-.148.341.148c-.111-.15-.094-.123-.168-.222l1.2-.518c.869-1.177.41-.57 1.381-1.821 1-1.29 2.008-2.576 2.989-3.88.571.41 1.202.888 1.627 1.24 1.236 1.026 2.287 1.964 3.35 3.19.646.744 1.218 1.549 1.826 2.323.566.917 1.191 1.799 1.697 2.75 1.088 2.044 1.917 4.21 2.348 6.462a17.75 17.75 0 0 0-2.816 1.34c-2.843 1.691-3.23 2.475-5.422 4.888-.634 1.036-1.349 2.026-1.903 3.107-1.493 2.909-2.322 6.114-2.693 9.348-.172 1.502-.18 2.716-.156 3.979-1.155.545-2.37.922-3.6 1.254-1.324-.356-2.628-.76-3.86-1.373a27.145 27.145 0 0 0-.165-3.593c-.371-3.234-1.2-6.439-2.693-9.348-.554-1.08-1.27-2.075-1.903-3.111-2.192-2.413-2.58-3.197-5.422-4.888-.842-.5-1.716-.916-2.61-1.266.41-2.374 1.267-4.654 2.409-6.799.506-.951 1.132-1.833 1.698-2.75.607-.774 1.18-1.579 1.825-2.322 1.063-1.227 2.11-2.165 3.346-3.19a32.144 32.144 0 0 1 1.627-1.242zm29.605 16.167c1.077-.037 2.154.063 3.231.095.975.139 1.956.232 2.923.42 1.593.307 2.93.749 4.435 1.306.519.192 1.25.5 1.891.79-.64 1.5-1.25 3.015-1.866 4.525-.598 1.466-.304.764-.888 2.105l.152 1.299-.275-.033.296.222.045.37c.073-.17.062-.14.11-.255l1.049.781c1.453.164.697.073 2.265.288 1.617.22 3.235.448 4.855.645-.07.7-.166 1.486-.26 2.031-.27 1.583-.559 2.963-1.089 4.497-.321.93-.73 1.824-1.097 2.738-.512.948-.967 1.934-1.538 2.848-1.86 2.979-4.24 5.598-7.337 7.325-1 .559-1.754.905-2.454 1.16-1.828-1.645-2.798-1.936-5.36-3.256-1.165-.344-2.307-.776-3.494-1.032-3.196-.689-6.51-.663-9.73-.185a25.936 25.936 0 0 0-3.075.65c-.696-.562-1.342-1.18-1.977-1.813-.365-1.368-.68-2.745-.752-4.168a45.29 45.29 0 0 1-.083-.646c1.573-.852 2.87-1.548 4.452-2.72 2.615-1.939 4.977-4.262 6.75-7.01.658-1.02 1.162-2.13 1.743-3.197.993-3.105 1.478-3.833 1.52-7.14a17.422 17.422 0 0 0-.082-1.797c1.826-.512 3.725-.776 5.64-.843zm-47.979.268c1.995.068 3.97.351 5.866.908-.035.483-.052.973-.045 1.463.043 3.308.528 4.036 1.52 7.14.581 1.068 1.085 2.178 1.743 3.199 1.773 2.747 4.135 5.07 6.75 7.008 1.502 1.114 2.755 1.799 4.214 2.59-.011.26-.043.522-.111 1.04-.073 1.426-.387 2.806-.753 4.176a26.02 26.02 0 0 1-1.89 1.735 27.425 27.425 0 0 0-3.597-.793c-3.22-.479-6.53-.505-9.726.185-1.188.256-2.33.687-3.494 1.031-2.578 1.329-3.551 1.617-5.402 3.289a18.679 18.679 0 0 1-1.98-.974c-3.097-1.728-5.479-4.351-7.338-7.33-.571-.914-1.026-1.895-1.538-2.844-.366-.914-.776-1.811-1.097-2.742-.53-1.534-.82-2.91-1.09-4.493a32.292 32.292 0 0 1-.259-2.035c1.62-.197 3.238-.424 4.855-.645 1.568-.215.812-.12 2.265-.284l1.048-.78c.05.113.038.084.111.254l.045-.37.296-.222-.275.033.152-1.299c-.584-1.34-.29-.639-.888-2.104-.617-1.512-1.226-3.028-1.866-4.53.64-.29 1.373-.598 1.89-.79 1.507-.557 2.843-.999 4.436-1.307.967-.186 1.948-.276 2.923-.415 1.077-.031 2.158-.132 3.235-.094zm40.934 1.027c.072.681.117 1.369.106 2.064-.047 3.274-.544 4.011-1.545 7.078-.586 1.059-1.092 2.166-1.755 3.178-1.804 2.749-4.202 5.055-6.849 6.98-1.84 1.338-1.528 1.168-2.778 1.685-.06.03-.122.053-.181.082-.024-.433.024-.815.176-2.26.343-3.255 1.144-6.486 2.623-9.422.544-1.08 1.246-2.072 1.87-3.108 2.156-2.4 2.55-3.2 5.36-4.88a17.451 17.451 0 0 1 2.973-1.397zm-33.658.354c.94.358 1.858.786 2.737 1.311 2.812 1.678 3.205 2.48 5.36 4.88.625 1.036 1.327 2.027 1.871 3.107 1.48 2.936 2.28 6.167 2.623 9.422.113 1.08.166 1.522.18 1.878-1.129-.465-.908-.353-2.696-1.652-2.647-1.925-5.045-4.231-6.848-6.98-.664-1.012-1.17-2.12-1.756-3.178-1-3.067-1.497-3.804-1.545-7.078-.009-.575.025-1.145.074-1.71zm12.977 21.042c.409.222.744.408 1.217.67a16.2 16.2 0 0 0 1.833.773l-1.081.83a37.955 37.955 0 0 0 1.9-.559c.627.2 1.26.391 1.898.56l-1.085-.831c.623-.226 1.237-.47 1.833-.773.373-.207.631-.346.962-.526.016.698.03 1.353.045 2.216.036.667.131 1.325.247 1.977l-1.262-.522c.466.47.946.924 1.435 1.368.14.643.29 1.284.464 1.92l.177-1.352c.44.37.898.723 1.377 1.048-.84.238-1.674.492-2.742.797-.635.208-1.246.464-1.845.744l.18-1.348c-.332.57-.643 1.146-.945 1.73-.383.198-.758.412-1.134.626-.346-.195-.693-.39-1.045-.572a37.788 37.788 0 0 0-.945-1.734l.18 1.352a16.214 16.214 0 0 0-1.849-.748c-.864-.248-1.522-.443-2.216-.646.448-.308.874-.638 1.287-.986l.177 1.352c.173-.635.325-1.274.464-1.915.49-.445.969-.898 1.435-1.37l-1.262.527c.117-.654.21-1.312.247-1.981.017-1.023.039-1.817.053-2.627zm16.981 6.24a24.26 24.26 0 0 1 4.883.49c1.185.245 2.328.668 3.49 1.002 2.525 1.282 3.508 1.576 5.299 3.17-.805.185-1.674.342-2.93.608-1.21.022-2.419.134-3.626.066-3.283-.188-6.481-1.108-9.471-2.438-2.08-.925-1.776-.742-2.849-1.566a14.53 14.53 0 0 1-1.003-.715c.33-.058.56-.099 1.315-.218a30.9 30.9 0 0 1 4.892-.4zm-26.925.05c1.638-.005 3.276.138 4.892.394 1.089.172 1.542.24 1.891.32-.37.293-.748.577-1.147.835-1.073.825-.769.637-2.849 1.562-2.99 1.33-6.188 2.255-9.47 2.442-1.208.069-2.417-.044-3.626-.066-1.526-.322-2.516-.48-3.461-.732 1.85-1.668 2.829-1.96 5.397-3.264 1.163-.334 2.302-.757 3.486-1.003a24.3 24.3 0 0 1 4.887-.489zm20.126.665c2.224 1.336 3.467 2.208 5.73 3.19 2.986 1.296 6.177 2.182 9.442 2.343 1.214.06 2.432-.064 3.647-.094 1.107-.241 1.9-.394 2.63-.555 2.438 2.442 4.015 5.512 5.015 8.788.315 1.03.496 2.096.744 3.145.118.977.284 1.949.354 2.93.115 1.62.033 3.026-.115 4.625a32 32 0 0 1-.272 2.03c-1.616-.228-3.238-.427-4.858-.632-1.57-.198-.815-.095-2.261-.313l-1.217.485c-.018-.123-.015-.092-.041-.275l-.136.345-.345.136c.184.026.153.023.275.041l-.485 1.217c.218 1.446.115.69.313 2.26.205 1.62.404 3.243.633 4.86-.694.114-1.48.22-2.03.27-1.6.15-3.006.23-4.625.116-.982-.07-1.954-.236-2.931-.354-1.049-.248-2.114-.43-3.145-.744-3.358-1.025-6.507-2.648-8.977-5.192-1.968-2.026-2.406-3.03-3.416-5.093.31-.992.652-1.976.871-2.992.69-3.196.66-6.51.181-9.73-.334-2.246-.817-3.702-1.447-5.854.39-.93.873-1.816 1.377-2.692 1.229-.707 2.481-1.365 3.84-1.805.64-.266.881-.37 1.25-.456zm-12.809.206c.186.07.402.163.732.3 1.358.439 2.61 1.097 3.84 1.804.498.866.972 1.741 1.36 2.66-.619 2.111-1.105 3.567-1.435 5.788-.478 3.22-.504 6.534.185 9.73.224 1.036.577 2.037.892 3.05-1.025 2.092-1.455 3.094-3.436 5.134-2.47 2.544-5.62 4.166-8.978 5.192-1.03.314-2.096.495-3.144.744-.978.117-1.953.283-2.935.353-1.62.115-3.022.034-4.62-.115a32.086 32.086 0 0 1-2.031-.271c.229-1.617.428-3.24.633-4.86.197-1.57.09-.814.308-2.26l-.485-1.217.28-.04-.35-.14-.136-.342c-.026.18-.019.15-.037.272l-1.216-.481c-1.447.217-.695.114-2.265.312-1.62.205-3.238.404-4.855.633a32.226 32.226 0 0 1-.275-2.03c-.15-1.6-.226-3.006-.111-4.625.07-.982.235-1.954.353-2.93.249-1.05.43-2.119.744-3.15.988-3.235 2.538-6.266 4.925-8.694.86.215 1.782.384 3.157.683 1.214.03 2.428.15 3.642.09 3.265-.161 6.456-1.043 9.442-2.339 2.266-.983 3.513-1.86 5.742-3.198.026-.017.049-.036.074-.053zm6.849 2.335c-.033.069-.063.14-.095.21-.094-.056-.193-.103-.288-.157l.383-.053zm-1.406.049.238.033c-.059.034-.122.06-.18.094l-.058-.127zm.522.07.78.103a16.004 16.004 0 0 0-.607 1.529 16.237 16.237 0 0 0-.634-1.57l.46-.062zm.173 2.84c.08.215.167.426.238.646.519 1.25.417.908.773 3.157.51 3.232.574 6.56-.095 9.779-.223 1.074-.588 2.114-.904 3.165-.32-1.068-.69-2.124-.917-3.215-.669-3.219-.601-6.542-.09-9.775.355-2.248.254-1.907.773-3.157.065-.204.147-.4.222-.6z" transform="translate(-23.813 -153.988)"/>
</svg>
